<?xml version="1.0" standalone="no"?>
<!DOCTYPE svg PUBLIC "-//W3C//DTD SVG 20010904//EN"
 "http://www.w3.org/TR/2001/REC-SVG-20010904/DTD/svg10.dtd">
<svg version="1.0" xmlns="http://www.w3.org/2000/svg"
 width="260.000000pt" height="260.000000pt" viewBox="0 0 260.000000 260.000000"
 preserveAspectRatio="xMidYMid meet">
<metadata>
Created by potrace 1.14, written by Peter Selinger 2001-2017
</metadata>
<g transform="translate(0.000000,260.000000) scale(0.100000,-0.100000)"
fill="#000000" stroke="none">
<path d="M175 2592 c-77 -26 -142 -91 -164 -167 -9 -30 -11 -326 -9 -1145 3
-1040 4 -1107 21 -1141 24 -47 68 -92 115 -115 35 -18 86 -19 1167 -19 l1130
0 50 33 c53 35 84 74 103 131 9 26 12 315 12 1135 l0 1101 -24 50 c-27 58 -62
96 -114 122 -35 17 -90 18 -1152 20 -613 0 -1124 -2 -1135 -5z"/>
</g>
</svg>
