<svg width="78" height="74" viewBox="0 0 78 74" fill="none" xmlns="http://www.w3.org/2000/svg">
<path fill-rule="evenodd" clip-rule="evenodd" d="M32.7147 1.98264C30.9616 3.73573 30.7394 5.27449 30.7394 15.6567C30.7394 25.7357 30.9893 27.5817 32.5458 28.9901C33.5394 29.8888 35.0949 30.6246 36.0026 30.6246C37.2658 30.6246 37.653 31.5382 37.653 34.517C37.653 36.6582 38.1399 38.7105 38.7354 39.0779C39.33 39.4463 41.9009 37.6942 44.448 35.1856L48.2033 31.4872C48.7645 30.9344 49.5207 30.6246 50.3084 30.6246H61.567C71.6026 30.6246 74.3601 30.3194 75.6075 29.073C76.8441 27.8355 77.1591 25.1323 77.1591 15.7397C77.1591 -0.842047 78.4125 0.00733488 53.9493 0.00733488C36.0065 0.00733488 34.5547 0.142643 32.7147 1.98264ZM73.2085 15.8098V25.6617C73.2085 26.7662 72.3131 27.6617 71.2085 27.6617H60.047C47.1818 27.6617 46.8322 27.7189 44.4954 30.2059L41.569 33.6855V30.4528C41.167 28.7313 40.2377 28.0775 37.8614 27.8463L34.69 27.5362V15.7476V5.95795C34.69 4.85338 35.5854 3.95795 36.69 3.95795H53.9493H71.2085C72.3131 3.95795 73.2085 4.85338 73.2085 5.95795V15.8098ZM56.1902 13.5431L52.2287 17.5038C51.8468 17.8857 51.2306 17.8953 50.837 17.5255L49.0298 15.8276C47.0702 13.9866 46.2535 13.7278 45.327 14.6542C44.4006 15.5807 44.9468 16.6513 47.8021 19.5066L50.7619 22.4664C51.151 22.8555 51.7813 22.8571 52.1724 22.4701L57.3991 17.2982C63.1493 11.6083 64.6614 8.89622 62.0846 8.89622C61.3981 8.89622 58.7463 10.9871 56.1902 13.5431ZM1.73493 41.6014C-0.536674 44.8449 -0.593958 64.7194 1.65987 67.9352C3.57987 70.677 8.28703 70.8547 10.8589 68.2829C12.6653 66.4765 12.8293 66.51 18.0194 69.7417L22.3643 72.4468C22.9968 72.8406 23.7268 73.05 24.4719 73.0512L36.6268 73.071L48.7143 73.0917C49.5022 73.093 50.273 72.8616 50.93 72.4265L62.1359 65.0039C77.6223 54.7451 79.7053 51.9362 75.1838 47.4147C72.294 44.5249 69.2668 44.9654 61.5917 49.3901C57.8228 51.5629 54.4856 53.3407 54.1754 53.3407C53.8663 53.3407 53.3191 52.0034 52.9596 50.3698C52.0559 46.2542 49.9414 45.4394 40.1656 45.4394C32.5823 45.4394 31.2539 45.154 27.6105 42.7431C23.9769 40.3392 22.4411 40.0063 13.4416 39.6725C3.78333 39.315 3.27765 39.3989 1.73493 41.6014ZM9.01098 54.2226C9.01098 64.0488 8.75419 66.0676 7.44061 66.5713C6.57641 66.9031 5.4653 66.9239 4.97147 66.6187C3.94728 65.9866 3.72407 44.1417 4.73147 43.1352C5.09296 42.7728 6.20407 42.4765 7.20061 42.4765C8.85493 42.4765 9.01098 43.4908 9.01098 54.2226ZM20.2811 43.4197C22.4055 43.9125 25.3873 45.235 26.9083 46.3589C29.1897 48.0459 31.1275 48.4024 38.0263 48.4024C47.6599 48.4024 49.5048 48.8923 49.5048 51.4523C49.5048 53.8434 47.4456 54.277 34.69 54.5782C18.6505 54.9555 22.2811 56.751 39.73 57.071L54.0966 57.3335C54.4596 57.3401 54.8177 57.2478 55.1323 57.0664L62.531 52.7994C70.7028 48.0854 73.5769 47.7594 73.0307 51.6083C72.8036 53.2083 69.2994 56.1249 60.5665 61.9826L49.4293 69.4527C48.7703 69.8948 47.9947 70.1308 47.2012 70.1308H36.9201H26.5205C25.8014 70.1308 25.0956 69.9369 24.4773 69.5696L18.6979 66.1357L12.9525 62.723C12.3458 62.3626 11.9739 61.7091 11.9739 61.0034V52.9673C11.9739 47.9214 12.2702 43.4967 12.6327 43.1352C13.5088 42.2592 15.6154 42.3372 20.2811 43.4197Z" fill="#EF817B"/>
</svg>
