<svg width="81" height="80" viewBox="0 0 81 80" fill="none" xmlns="http://www.w3.org/2000/svg">
<path fill-rule="evenodd" clip-rule="evenodd" d="M0.546313 0.409167L0.137146 0.818167V40V79.1818L0.546313 79.5908L0.955313 80H30.8038H60.6523L61.0613 79.5908L61.4705 79.1818V73.2182V67.2545L63.8043 69.5838C65.4 71.1763 66.2656 72.1772 66.5415 72.7482C66.7633 73.2075 67.2143 74.1587 67.5436 74.862C69.0978 78.1802 72.9206 79.5687 76.234 78.0182C77.7131 77.326 78.689 76.362 79.4313 74.86C80.0195 73.67 80.0538 73.5125 80.0538 72C80.0538 70.4875 80.0195 70.33 79.4313 69.14C78.672 67.6033 77.6916 66.6538 76.1671 65.978C73.6371 64.8567 73.413 64.697 71.0706 62.3502L68.7576 60.0328L69.1975 59.1503C70.0431 57.4533 69.7081 55.7743 68.2028 54.165L67.4163 53.3242L69.11 51.6028C71.4475 49.2277 71.4745 49.4335 68.4225 46.3813C65.3698 43.3287 65.5768 43.3557 63.1963 45.6983L61.4705 47.3967V30.7422V14.0877L54.4266 7.04383L47.3828 0H24.169H0.955313L0.546313 0.409167ZM45.4705 8.92417V15.1818L45.8796 15.5908L46.2886 16H52.5463H58.8038V33.039V50.0778L52.1371 56.752C45.95 62.9462 45.4705 63.4673 45.4705 63.9985C45.4705 64.5125 45.7126 64.8128 47.8518 66.952C50.904 70.004 50.6981 69.977 53.0733 67.6395L54.7946 65.9458L55.6355 66.7323C56.5526 67.5902 57.6268 68.1573 58.3455 68.163L58.8038 68.1667V72.75V77.3333H30.8038H2.80381V40V2.66667H24.1371H45.4705V8.92417ZM52.5538 9L56.8848 13.3333H52.511H48.1371V9C48.1371 6.61667 48.1565 4.66667 48.18 4.66667C48.2036 4.66667 50.1718 6.61667 52.5538 9ZM24.7698 8.17233C21.4498 9.83967 19.0811 11.1265 18.9781 11.319C18.6883 11.8607 18.7805 12.4918 19.213 12.9242C19.5488 13.2602 19.7871 13.3333 20.5463 13.3333H21.4705V15.3333V17.3333H20.5463C19.7871 17.3333 19.5488 17.4065 19.213 17.7425C18.8146 18.1407 18.8038 18.2185 18.8038 20.6667C18.8038 23.1148 18.8146 23.1927 19.213 23.5908L19.622 24H30.8038H41.9856L42.3946 23.5908C42.793 23.1927 42.8038 23.1148 42.8038 20.6667C42.8038 18.2185 42.793 18.1407 42.3946 17.7425C42.0588 17.4065 41.8205 17.3333 41.0613 17.3333H40.1371V15.3333V13.3333H41.0613C41.8205 13.3333 42.0588 13.2602 42.3946 12.9242C42.8271 12.4918 42.9193 11.8607 42.6295 11.319C42.4181 10.9242 31.3098 5.32917 30.7631 5.34233C30.5563 5.34733 27.8593 6.62083 24.7698 8.17233ZM33.3038 9.41667L35.7205 10.6492H30.8038H25.8871L28.3038 9.41667C29.633 8.73883 30.758 8.18417 30.8038 8.18417C30.8496 8.18417 31.9746 8.73883 33.3038 9.41667ZM26.8038 15.3333V17.3333H25.4705H24.1371V15.3333V13.3333H25.4705H26.8038V15.3333ZM32.1371 15.3333V17.3333H30.8038H29.4705V15.3333V13.3333H30.8038H32.1371V15.3333ZM37.4705 15.3333V17.3333H36.1371H34.8038V15.3333V13.3333H36.1371H37.4705V15.3333ZM40.1371 20.6667V21.3333H30.8038H21.4705V20.6667V20H30.8038H40.1371V20.6667ZM5.47048 28V29.3333H30.8038H56.1371V28V26.6667H30.8038H5.47048V28ZM5.47048 33.3333V34.6667H30.8038H56.1371V33.3333V32H30.8038H5.47048V33.3333ZM5.47048 38.6667V40H30.8038H56.1371V38.6667V37.3333H30.8038H5.47048V38.6667ZM5.47048 44V45.3333H30.8038H56.1371V44V42.6667H30.8038H5.47048V44ZM66.5563 48.3358L67.5483 49.3383L59.1768 57.7098L50.8053 66.0815L49.764 65.0402L48.7228 63.999L57.0543 55.6662C61.6366 51.0832 65.426 47.3333 65.4751 47.3333C65.5241 47.3333 66.0106 47.7845 66.5563 48.3358ZM28.3871 48.2365C24.7536 48.9472 21.6351 51.039 19.63 54.1107C18.1485 56.38 17.5611 58.4303 17.5611 61.3333C17.5611 64.2292 18.1498 66.291 19.6175 68.5345C23.6661 74.7238 31.907 76.5022 38.0265 72.5072C45.1383 67.8645 46.1923 57.9165 40.2065 51.9307C38.4796 50.2038 36.4968 49.0782 33.973 48.3922C32.6728 48.0387 29.8065 47.9588 28.3871 48.2365ZM33.0325 50.9152C39.1473 52.2107 42.9413 58.8245 40.9138 64.6543C40.3261 66.3445 39.5646 67.5583 38.2966 68.8262C34.075 73.0478 27.5253 73.047 23.2808 68.8242C19.099 64.6635 19.1046 58.0123 23.2936 53.8232C25.881 51.236 29.4776 50.162 33.0325 50.9152ZM66.2691 56.048C66.8198 56.6092 66.9705 56.8862 66.9705 57.3383C66.9705 57.8667 66.6591 58.2255 63.1801 61.707C59.6606 65.2292 59.3476 65.5 58.7981 65.5C58.3168 65.5 58.0688 65.3597 57.4676 64.7472L56.7286 63.9942L61.0566 59.6638C63.4371 57.282 65.426 55.3333 65.4763 55.3333C65.5266 55.3333 65.8833 55.655 66.2691 56.048ZM32.2633 60.623L28.1401 64.7462L26.677 63.2897C25.8723 62.4887 25.1375 61.8333 25.0443 61.8333C24.825 61.8333 23.3038 63.3752 23.3038 63.5973C23.3038 63.6903 24.2665 64.719 25.4431 65.8832C27.3335 67.7537 27.648 68 28.1448 68C28.6591 68 29.1173 67.5908 33.5055 63.2122C36.1446 60.5788 38.3038 58.3448 38.3038 58.2475C38.3038 58.0278 36.7685 56.5 36.5476 56.5C36.459 56.5 34.531 58.3553 32.2633 60.623ZM69.2886 64.3825C71.7706 66.814 72.7771 67.5377 74.4705 68.108C76.173 68.6813 77.4705 70.3647 77.4705 72C77.4705 73.5408 76.1335 75.3742 74.7011 75.7973C72.5296 76.4388 70.3653 75.2463 69.5785 72.9747C68.9931 71.285 68.2675 70.2827 65.8208 67.7853L63.4061 65.3207L65.0601 63.6603C65.9698 62.7472 66.7463 62 66.7855 62C66.8246 62 67.9511 63.0722 69.2886 64.3825Z" fill="#54D6D4"/>
</svg>
