<svg width="80" height="80" viewBox="0 0 80 80" fill="none" xmlns="http://www.w3.org/2000/svg">
<path fill-rule="evenodd" clip-rule="evenodd" d="M52.2499 4.25834C51.8199 4.52005 51.5241 4.96668 51.4435 5.47602C51.3995 5.75474 51.2628 5.75784 36.1478 5.82759C21.8842 5.8934 20.8719 5.91393 20.5166 6.14596C19.6669 6.70059 19.6385 6.84009 19.6385 10.4682C19.6385 14.1464 19.6649 14.2664 20.599 14.8338C21.0059 15.0809 21.3238 15.1079 23.8384 15.1083L26.6266 15.1089V16.9207V18.7324L24.7134 20.7686L22.8004 22.8048L21.9508 22.8932C21.0533 22.9866 20.6785 23.1715 20.2961 23.7093C20.1025 23.9817 20.054 24.5004 20.0151 26.7105C19.9626 29.6964 20.0535 30.2274 20.7107 30.7782L21.1424 31.1402H27.7104H34.2783L34.7583 30.6621L35.2383 30.184V27.087V23.9898L34.8764 23.5613C34.5028 23.1191 33.8003 22.8454 33.0351 22.8441C32.6547 22.8434 32.3427 22.5762 30.6705 20.818L28.7443 18.7929V16.9508V15.1089H40.0426C48.9624 15.1089 51.351 15.1459 51.388 15.2847C51.5999 16.0792 51.7507 16.337 52.1668 16.6162C52.5749 16.8902 52.827 16.937 53.8943 16.937H55.144V38.0207V59.1045L53.0507 59.1498C51.1095 59.1918 50.9213 59.2196 50.4615 59.5339C50.1888 59.7203 49.8125 60.0952 49.6255 60.367C49.2889 60.8558 49.2848 60.9036 49.2418 64.7742L49.1983 68.6873L48.1829 68.6904C46.5638 68.6953 45.4474 69.35 44.7786 70.687C44.4489 71.3462 44.4147 71.5712 44.4147 73.0877C44.4147 74.4126 44.4648 74.8457 44.6555 75.1673C45.1737 76.041 44.4107 75.9998 60.1064 75.9992C74.2083 75.9988 74.4212 75.9946 74.8817 75.7149C75.5374 75.3166 75.7555 74.6934 75.7555 73.2174C75.7555 71.6747 75.4903 70.7502 74.8259 69.9771C74.0897 69.1203 73.3631 68.7891 72.0144 68.6954L70.885 68.617L70.8144 64.7497C70.7554 61.5149 70.7059 60.8135 70.5112 60.4604C69.9016 59.3537 69.2403 59.1247 66.6543 59.1247H64.6027V38.0309V16.937H65.8524C67.5687 16.937 67.9925 16.6576 68.3587 15.2847C68.3943 15.1512 69.1054 15.1089 71.3087 15.1089C74.5653 15.1089 74.9914 15.0197 75.4695 14.2384C75.7339 13.8064 75.7546 13.5353 75.7546 10.4682C75.7546 7.44352 75.7313 7.12556 75.4803 6.7155C75.0082 5.94431 74.8252 5.90395 71.4497 5.82759L68.3439 5.75727L68.2954 5.41597C68.2689 5.22838 68.1447 4.91914 68.0196 4.72888C67.5476 4.01141 67.4125 3.99945 59.772 4.00001C53.1375 4.00044 52.6458 4.01731 52.2499 4.25834ZM66.2968 10.4682V14.8276H59.8734H53.4499V10.4682V6.10884H59.8734H66.2968V10.4682ZM24.9325 10.463L27.5443 12.9852L24.6149 12.9923L21.6855 12.9995V10.4682V7.93697L22.0032 7.93894C22.2223 7.94035 23.1309 8.72335 24.9325 10.463ZM32.6266 10.2399L30.2266 12.5408L29.7325 12.147C29.4607 11.9305 28.3816 10.8946 27.3345 9.84512L25.4306 7.93697L30.2286 7.93796L35.0266 7.9388L32.6266 10.2399ZM49.7793 7.99097C49.7793 8.02064 48.7064 9.06535 47.395 10.3127L45.0106 12.5807L42.6304 10.2652L40.25 7.94977L45.0147 7.9433C47.6353 7.93978 49.7793 7.9613 49.7793 7.99097ZM73.6379 9.71026V11.4836L72.2615 10.2151C71.5043 9.51746 70.666 8.71941 70.3985 8.44182L69.912 7.93697H71.775H73.6379V9.71026ZM40.8828 11.5129L42.3626 12.9995H37.5924H32.8221L35.1948 10.696L37.5677 8.3926L38.4853 9.20949C38.99 9.65879 40.0689 10.6953 40.8828 11.5129ZM51.3323 11.2417V12.9995H49.5213H47.7103L49.486 11.2431C50.4626 10.2771 51.2776 9.4861 51.297 9.48526C51.3163 9.48456 51.3323 10.2749 51.3323 11.2417ZM72.0733 12.9638C72.1056 12.9835 71.2955 12.9995 70.2733 12.9995H68.4144V11.2137V9.42789L70.2144 11.178C71.2043 12.1404 72.041 12.9441 72.0733 12.9638ZM62.4542 18.8135C62.4759 19.8068 62.4442 20.5978 62.3836 20.5713C62.3229 20.5448 61.4825 19.7141 60.516 18.7256L58.7585 16.9282L60.5866 16.9678L62.4145 17.0073L62.4542 18.8135ZM59.7271 20.955L61.9626 23.2856L61.0601 24.2245C58.7393 26.6391 57.4696 27.9058 57.3702 27.9058C57.3105 27.9058 57.2616 25.8175 57.2616 23.2652C57.2616 20.7128 57.3133 18.6245 57.3765 18.6245C57.4398 18.6245 58.4975 19.6733 59.7271 20.955ZM28.6802 22.8145C28.1787 22.8372 27.305 22.8372 26.7387 22.8145L25.709 22.773L26.6972 21.7384L27.6855 20.704L28.6387 21.7384L29.592 22.773L28.6802 22.8145ZM33.1207 26.9918V29.0308H27.6149H22.109V27.0856C22.109 26.0155 22.1514 25.0979 22.2032 25.0465C22.2549 24.9949 24.7325 24.9527 27.709 24.9527H33.1207V26.9918ZM62.4851 30.6816V35.4261L60.1557 33.109C58.8745 31.8346 57.8263 30.7286 57.8263 30.6511C57.8263 30.5344 62.3338 25.9371 62.4483 25.9371C62.4684 25.9371 62.4851 28.072 62.4851 30.6816ZM4.77516 27.2816C3.99403 27.8265 4.03865 26.3595 4.03865 51.5309C4.03865 72.0086 4.06392 74.7967 4.25281 75.1607C4.70683 76.0352 4.1801 75.9998 16.7282 75.9998C23.8137 75.9998 28.2989 75.9476 28.5232 75.8627C28.7224 75.7873 29.0122 75.5183 29.1672 75.265C29.4372 74.8239 29.4492 74.5532 29.4496 68.863C29.4501 63.1088 29.4413 62.9128 29.1678 62.6404C28.7474 62.2216 27.9918 62.2653 27.6252 62.7297C27.3407 63.0898 27.3325 63.2501 27.3325 68.4953V73.8904H16.7444H6.15627V51.5309V29.1715H10.9616H15.7668L15.7262 30.4722L15.6856 31.773L13.5915 31.8433C11.7284 31.9059 11.4753 31.9437 11.2974 32.1866C11.0648 32.504 11.0384 33.0176 11.2356 33.3847C11.4629 33.8076 12.1731 33.9527 14.0166 33.9527H15.7644L15.725 35.816L15.6856 37.6793L13.8195 37.7496C11.7361 37.8281 11.4739 37.9399 11.4739 38.7496C11.4739 39.0659 11.5885 39.2986 11.8582 39.5297C12.2168 39.8369 12.3606 39.859 13.9994 39.859H15.7562V44.7591C15.7562 49.5612 15.7621 49.6645 16.0532 49.9271C16.3327 50.1792 16.672 50.1974 21.8414 50.2363L27.3325 50.2777V54.5011V58.7245L27.7596 59.1499C28.1019 59.4909 28.263 59.5573 28.5713 59.4846C28.783 59.4348 29.0671 59.2631 29.2031 59.1032C29.4281 58.8383 29.4501 58.3736 29.4501 53.8951V48.978L29.0375 48.567L28.6248 48.1559H26.1434H23.662V45.4137V42.6715H26.2491C28.7708 42.6715 28.8439 42.6634 29.1432 42.3461C29.5775 41.8856 29.5487 41.2222 29.0782 40.8536C28.7334 40.5834 28.5219 40.5621 26.1841 40.5621H23.662V38.798C23.662 37.1123 23.6466 37.0184 23.3154 36.6886C22.8738 36.2486 22.3325 36.2486 21.8909 36.6886C21.5597 37.0184 21.5443 37.1123 21.5443 38.798V40.5621H19.7091H17.8738V34.4404C17.8738 27.9255 17.8392 27.5606 17.1891 27.2139C16.9979 27.1121 14.9584 27.0621 10.9969 27.0621C5.87237 27.0621 5.04805 27.0912 4.77516 27.2816ZM59.7333 35.7094L61.9533 38.0286L59.7311 40.3501C58.5089 41.6268 57.4533 42.6715 57.3853 42.6715C57.317 42.6715 57.2616 40.5931 57.2616 38.0309C57.2616 35.4092 57.3164 33.3902 57.3874 33.3902C57.4566 33.3902 58.5123 34.4338 59.7333 35.7094ZM62.4851 45.4473V50.1918L60.1557 47.8747C58.8745 46.6003 57.8263 45.4943 57.8263 45.4168C57.8263 45.3001 62.3338 40.7028 62.4483 40.7028C62.4684 40.7028 62.4851 42.8377 62.4851 45.4473ZM21.5443 45.4137V48.1559H19.7091H17.8738V45.4137V42.6715H19.7091H21.5443V45.4137ZM58.8888 49.5973C59.6644 50.39 60.6731 51.4297 61.1304 51.9074L61.9618 52.776L59.723 55.1066C58.4917 56.3884 57.4341 57.4372 57.3729 57.4372C57.3117 57.4372 57.2616 55.3489 57.2616 52.7966C57.2616 50.2442 57.3105 48.1559 57.37 48.1559C57.4296 48.1559 58.113 48.8046 58.8888 49.5973ZM9.59925 53.4949C9.43534 53.562 9.16528 53.789 8.99925 53.9992C8.71592 54.3579 8.69742 54.5389 8.69742 56.9549C8.69742 58.3703 8.7594 59.6906 8.83507 59.8889C8.91074 60.0873 9.1808 60.377 9.43506 60.5325C9.88428 60.8074 10.0966 60.8145 16.9326 60.7788L23.9676 60.7419L24.3796 60.2826L24.7914 59.8233V57.0856V54.3479L24.3796 53.8887L23.9676 53.4294L16.9326 53.4011C13.0633 53.3856 9.76329 53.4278 9.59925 53.4949ZM15.7562 57.0856V58.7028H13.2856H10.815V57.0856V55.4685H13.2856H15.7562V57.0856ZM22.6737 57.0856V58.7028H20.2738H17.8738V57.0856V55.4685H20.2738H22.6737V57.0856ZM62.454 57.2614L62.4145 59.0544L60.5931 59.0939L58.7716 59.1334L60.5225 57.3114C61.4854 56.3093 62.3229 55.4846 62.3835 55.4789C62.444 55.4731 62.4758 56.2754 62.454 57.2614ZM68.4735 61.3195C68.6691 61.3943 68.6968 61.8554 68.6968 65.046V68.6873H65.3895H62.082L61.7895 69.0578C61.6286 69.2616 61.4969 69.5118 61.4969 69.6137C61.4969 70.0295 61.8433 70.5102 62.2433 70.649C62.509 70.7412 64.5289 70.7967 67.6277 70.7967C73.1266 70.7967 73.0465 70.7839 73.4411 71.7246C73.5494 71.9827 73.6379 72.5756 73.6379 73.0422V73.8904H60.0851H46.5323V72.7762C46.5323 71.7224 46.5556 71.6389 46.9618 71.2343L47.3912 70.8065L52.6211 70.7664L57.851 70.7263L58.1915 70.3317C58.6089 69.8484 58.6204 69.5402 58.2395 69.0578L57.947 68.6873H54.6396H51.3323V65.1294C51.3323 62.5498 51.3789 61.5252 51.5017 61.4029C51.6296 61.2755 53.7015 61.2341 59.9606 61.2341C64.5199 61.2341 68.3506 61.2725 68.4735 61.3195ZM9.968 63.9977C8.77591 64.3889 8.69742 64.6228 8.69742 67.7802V70.4029L9.17742 70.881L9.65741 71.3592H16.6531C21.7762 71.3592 23.7478 71.3142 24.0189 71.1911C24.7071 70.8788 24.7914 70.4859 24.7914 67.5883C24.7914 65.1216 24.7703 64.9018 24.5027 64.5626C24.3437 64.3615 23.9785 64.1318 23.6909 64.0522C23.1664 63.9071 10.3986 63.8564 9.968 63.9977ZM15.7255 67.6677L15.7655 69.2498H13.2903H10.815V67.6292V66.0088L13.2503 66.0472L15.6856 66.0857L15.7255 67.6677ZM22.6737 67.6326V69.2498H20.2738H17.8738V67.6326V66.0154H20.2738H22.6737V67.6326Z" fill="#479CED"/>
</svg>
