<svg width="81" height="80" viewBox="0 0 81 80" fill="none" xmlns="http://www.w3.org/2000/svg">
<path fill-rule="evenodd" clip-rule="evenodd" d="M5.64074 5.35802L5.28271 5.7159V34.7777V63.8395L10.863 69.4197L16.4432 75H43.1717H69.9002L70.258 74.642C70.6109 74.2892 70.616 74.2476 70.616 71.7253V69.1667H69.4494H68.2827V70.9167V72.6667H43.1994H18.116V67.7747V62.8826L17.758 62.5247L17.4002 62.1667H12.508H7.61605V34.75V7.33333H37.9494H68.2827V32.4167V57.5H69.4494H70.616V31.608V5.7159L70.258 5.35802L69.9002 5H37.9494H5.99861L5.64074 5.35802ZM12.6407 12.358L12.2827 12.7159V34.1667V55.6174L12.6407 55.9753C12.9855 56.3202 13.0711 56.3333 14.9741 56.3333H16.9494V57.5V58.6667H18.116H19.2827V57.5V56.3333H27.4494H35.616V57.5V58.6667H36.7827H37.9494V57.5V56.3333H41.4494H44.9494V57.5V58.6667H46.116H47.2827V57.5V56.3333H52.5327H57.7827V57.5V58.6667H58.9494H60.116V57.5V56.3333H61.508C62.7917 56.3333 62.928 56.3055 63.258 55.9753L63.616 55.6174V47V38.3826L63.258 38.0247C62.9013 37.6678 62.8907 37.6667 59.9039 37.6667C58.2559 37.6667 56.9077 37.6112 56.9077 37.5436C56.9077 37.4759 57.1046 36.4485 57.3452 35.2604C57.5858 34.0723 57.7827 32.9764 57.7827 32.8249C57.7827 32.6732 57.6216 32.3882 57.4247 32.1914C57.1497 31.9162 56.9133 31.8333 56.4039 31.8333C55.9675 31.8333 55.7432 31.7711 55.7473 31.651C55.7508 31.5509 55.9389 30.5649 56.1653 29.46C56.3918 28.3554 56.5329 27.4242 56.479 27.3908C56.2856 27.2714 54.4285 26.9723 54.3524 27.0484C54.3097 27.0911 54.0651 28.1852 53.8089 29.4797L53.3431 31.8333H51.9494H50.5556L50.0899 29.4797C49.8336 28.1852 49.5885 27.0905 49.5452 27.0471C49.4733 26.9753 47.624 27.2822 47.4116 27.4012C47.3622 27.4289 47.507 28.3554 47.7335 29.46C47.9598 30.5649 48.1479 31.5509 48.1514 31.651C48.1555 31.7711 47.9312 31.8333 47.4949 31.8333C46.9855 31.8333 46.7491 31.9162 46.4741 32.1914C46.2772 32.3882 46.116 32.6732 46.116 32.8249C46.116 32.9764 46.3129 34.0723 46.5535 35.2604C46.7942 36.4485 46.991 37.4759 46.991 37.5436C46.991 37.6112 46.0067 37.6667 44.8035 37.6667H42.616V25.1914V12.7159L42.258 12.358L41.9002 12H27.4494H12.9986L12.6407 12.358ZM46.4741 12.358L46.116 12.7159V17.8333V22.9508L46.4741 23.3086L46.8319 23.6667H54.866H62.9002L63.258 23.3086L63.616 22.9508V17.8333V12.7159L63.258 12.358L62.9002 12H54.866H46.8319L46.4741 12.358ZM26.2827 34.1667V54H20.4494H14.616V34.1667V14.3333H20.4494H26.2827V34.1667ZM40.2827 34.1667V54H34.4494H28.616V34.1667V14.3333H34.4494H40.2827V34.1667ZM61.2827 17.8333V21.3333H54.866H48.4494V17.8333V14.3333H54.866H61.2827V17.8333ZM21.616 34.1667V35.3333H22.7827H23.9494V34.1667V33H22.7827H21.616V34.1667ZM30.9494 34.1667V35.3333H32.116H33.2827V34.1667V33H32.116H30.9494V34.1667ZM55.1143 34.5677C55.0704 34.7882 54.9181 35.5757 54.7761 36.3177L54.5178 37.6667H51.9494H49.381L49.1227 36.3177C48.9807 35.5757 48.8284 34.7882 48.7845 34.5677L48.7046 34.1667H51.9494H55.1942L55.1143 34.5677ZM61.2827 41.1667V42.3333H51.9494H42.616V41.1667V40H51.9494H61.2827V41.1667ZM50.7827 49.3333V54H46.6994H42.616V49.3333V44.6667H46.6994H50.7827V49.3333ZM61.2827 49.3333V54H57.1994H53.116V49.3333V44.6667H57.1994H61.2827V49.3333ZM46.116 49.3333V50.5H47.2827H48.4494V49.3333V48.1667H47.2827H46.116V49.3333ZM55.4494 49.3333V50.5H56.616H57.7827V49.3333V48.1667H56.616H55.4494V49.3333ZM48.3035 61.0092C36.2322 61.6354 25.9619 62.1518 25.4806 62.1569L24.6056 62.1659L23.2609 63.5881C21.7035 65.2353 21.4765 65.6407 21.7766 66.2396C21.9688 66.6235 23.916 68.4812 24.6513 68.9823C24.9524 69.1875 25.3435 69.1941 28.2971 69.0429C30.1168 68.9497 40.7603 68.4137 51.9494 67.8517C73.9482 66.7469 73.0315 66.8269 74.067 65.9178C75.5702 64.598 75.6167 62.2002 74.1659 60.8263C73.4403 60.1391 72.5655 59.838 71.3452 59.8552C70.7437 59.8637 60.3749 60.383 48.3035 61.0092ZM72.4729 62.4534C72.6423 62.6112 72.8247 62.8785 72.8784 63.0475C73.0138 63.4746 72.7071 64.1391 72.2855 64.3311C71.9131 64.5007 31.4862 66.6109 31.1416 66.4787C31.0061 66.4267 30.9494 66.0808 30.9494 65.3066C30.9494 64.3623 30.9848 64.2083 31.2018 64.2083C31.5609 64.2083 50.328 63.2556 61.2098 62.685C72.6844 62.0831 72.0887 62.0954 72.4729 62.4534ZM28.616 65.2901C28.616 65.8049 28.6528 66.3219 28.6977 66.4389C28.7645 66.6131 28.4987 66.6706 27.2203 66.7578L25.6615 66.864L25.0652 66.2676L24.4688 65.6715L25.0344 65.0924C25.6348 64.4775 25.6572 64.472 27.9233 64.3817L28.616 64.3542V65.2901ZM15.7827 67.7083C15.7827 69.4729 15.7658 70.9167 15.7449 70.9167C15.7242 70.9167 14.2647 69.4729 12.5015 67.7083L9.29561 64.5H12.5392H15.7827V67.7083Z" fill="#FFA34B"/>
</svg>
