<svg width="81" height="81" viewBox="0 0 81 81" fill="none" xmlns="http://www.w3.org/2000/svg">
<path fill-rule="evenodd" clip-rule="evenodd" d="M48.0878 0.951866C45.9793 1.33437 43.9706 2.13738 42.0955 3.34696C41.6163 3.65631 38.5853 6.53505 35.2454 9.85336C28.8165 16.2405 27.971 17.2431 26.9548 19.684C26.4627 20.8662 25.9437 22.8941 25.7573 24.3634L25.663 25.1059L25.0083 25.1082C20.8534 25.1234 10.2112 25.6686 8.09651 25.9748C4.95516 26.4296 2.3159 28.7431 1.50883 31.7494C1.07051 33.3816 0.515119 45.2311 0.5159 52.9304C0.516682 60.2809 1.04754 72.1458 1.4574 73.9749C1.90447 75.9697 3.48015 78.031 5.28452 78.9814C6.64511 79.698 7.70681 79.9633 9.65281 80.0725C11.2835 80.1641 11.3957 80.151 11.6788 79.8349C12.0732 79.3944 12.0626 78.6332 11.6562 78.2269C11.4033 77.974 11.0195 77.875 9.87165 77.7664C7.16205 77.5103 6.23524 77.1267 4.99674 75.7491C3.86187 74.487 3.6793 73.7901 3.40934 69.6921C2.6959 58.8648 2.69606 47.1957 3.4098 36.1738C3.59035 33.3846 3.70837 32.442 3.9616 31.7655C4.39961 30.5945 5.46491 29.4488 6.66449 28.8583C7.75605 28.3209 9.38457 28.1172 15.5216 27.7508C24.4261 27.2193 40.4412 27.7805 42.5126 28.6966C44.0112 29.3596 45.2732 30.794 45.6907 32.3091C45.935 33.1953 46.2935 39.4711 46.4996 46.4696C46.6478 51.5002 46.6481 54.3153 46.5009 59.3658C46.2938 66.4734 45.9375 72.6404 45.6769 73.6298C45.4339 74.5528 44.8746 75.4445 44.0784 76.1784C42.7685 77.3858 42.2278 77.5418 38.2631 77.8564C31.6648 78.3801 23.7656 78.5381 17.8663 78.2647C16.198 78.1875 15.1768 78.201 14.9745 78.3032C14.2082 78.6904 14.0699 79.4093 14.6351 80.0664C14.996 80.4862 15.0223 80.4907 17.7224 80.6129C25.5948 80.969 39.8103 80.4547 42.4082 79.7197C45.0854 78.9624 47.1866 76.8607 47.9367 74.1895C48.1539 73.4159 48.2444 72.408 48.5935 66.8817L48.6946 65.2794L60.597 65.2763C67.6767 65.2744 72.9426 65.2099 73.5935 65.117C75.7546 64.8085 77.4735 63.5407 78.4092 61.5655L78.9083 60.5118V32.9999V5.48804L78.5317 4.55014C78.0085 3.24661 76.4499 1.69125 75.1567 1.18243C74.3418 0.861827 73.8905 0.805553 71.716 0.753968C69.3426 0.69785 69.191 0.712075 68.785 1.03159C68.2462 1.45536 68.1985 2.24774 68.6853 2.68918C68.969 2.94648 69.3462 2.99837 71.4599 3.07075C73.5507 3.14234 73.997 3.20268 74.5314 3.48624C75.2605 3.87313 75.8623 4.48417 76.2722 5.25356C76.5527 5.78035 76.5651 6.79657 76.6043 32.6862C76.6489 61.974 76.6989 60.2335 75.7771 61.4422C75.5476 61.7429 74.9625 62.1842 74.4767 62.4227L73.5935 62.8565L61.2429 62.9009L48.8924 62.9453L48.8938 53.4828L48.8954 44.0203H54.0815H59.2678L59.5917 43.6084C60.0328 43.0477 59.999 42.6727 59.4588 42.1324L59.0019 41.6755H53.8314H48.6609V40.5227C48.6609 39.8887 48.617 39.1501 48.5632 38.8813L48.4655 38.3929H60.1377H71.8101L72.1937 38.0091C72.6861 37.5169 72.6953 36.8386 72.2157 36.3879L71.8538 36.0481H60.1011H48.3482L48.3471 35.3837C48.3465 35.0183 48.3012 34.2447 48.2463 33.6643L48.1467 32.6091H60.0494C71.7438 32.6091 71.9576 32.6036 72.2648 32.2965C72.8597 31.7015 72.6032 30.7255 71.7758 30.4371C71.4307 30.3169 67.6595 30.2643 59.358 30.2643H47.4358L47.0753 29.6782C46.5679 28.8533 45.5806 27.81 44.7972 27.271C43.5252 26.3958 42.3025 26.0607 39.47 25.8106C36.2108 25.5229 31.6911 25.2622 29.9636 25.2622C29.2424 25.2622 28.6523 25.2242 28.6523 25.1778C28.6523 25.1314 28.8006 24.8026 28.9819 24.4472C29.4934 23.4448 30.7944 22.2493 32.0175 21.6581L33.1073 21.1312L37.0934 21.0326C40.634 20.9449 41.1734 20.897 41.9202 20.6044C43.6503 19.9263 44.891 18.7008 45.5524 17.0168C45.8736 16.1984 45.9141 15.7661 46.001 12.2097C46.0851 8.77508 46.1354 8.20531 46.4166 7.50547C47.2706 5.37971 48.9682 3.88157 51.1946 3.28897C51.843 3.11639 53.4445 3.0684 58.6088 3.067C64.8102 3.06528 65.2171 3.04793 65.5571 2.77265C66.059 2.36623 66.059 1.41926 65.5571 1.01283C65.2141 0.73521 64.7913 0.721142 57.2019 0.734429C51.3749 0.744746 48.9044 0.803677 48.0878 0.951866ZM45.3255 4.66737C44.7317 5.4585 44.1921 6.64229 43.9135 7.76465C43.72 8.54389 43.6586 9.55917 43.6578 11.9852C43.6573 13.8351 43.5843 15.4417 43.4843 15.802C43.2113 16.7848 42.5224 17.6464 41.6028 18.1548L40.7668 18.617L36.8589 18.7117C34.4083 18.7711 32.7178 18.8801 32.3257 19.0039C31.5956 19.2343 30.3155 19.8619 29.7224 20.28C29.102 20.7176 29.0771 20.65 29.5281 19.752C30.348 18.1191 31.3772 16.9633 36.8853 11.4891C42.318 6.08986 43.0968 5.39722 44.6782 4.55639C45.6604 4.03413 45.7848 4.05539 45.3255 4.66737ZM59.6813 5.54572C58.9758 5.9956 50.5859 14.5041 50.4717 14.8855C50.3366 15.3362 50.6048 15.9813 51.0195 16.2033C51.2074 16.3038 51.5978 16.3477 51.8868 16.3007L52.4125 16.2155V20.6364C52.4125 24.9322 52.4219 25.0659 52.7415 25.3552C53.0551 25.6391 53.4106 25.653 60.3364 25.653H67.6023L67.9795 25.2144L68.3569 24.7757V20.5208V16.2657L68.9596 16.3232C69.4659 16.3715 69.6158 16.3126 69.8975 15.9544C70.5877 15.0772 70.585 15.0736 65.5822 10.0733C62.7626 7.25505 60.778 5.39003 60.541 5.33594C60.2945 5.27967 59.9772 5.35705 59.6813 5.54572ZM63.2414 11.0021L66.0168 13.7807L65.9754 18.5445L65.9339 23.3082L60.3456 23.3493L54.7573 23.3903V18.5832V13.776L57.5303 10.9998C59.0554 9.47288 60.34 8.2236 60.3847 8.2236C60.4294 8.2236 61.7149 9.47398 63.2414 11.0021ZM56.9571 14.1066C56.6576 14.4872 56.6331 14.7236 56.6331 17.2228C56.6331 18.7101 56.6975 20.0965 56.7762 20.3036C57.0259 20.9603 57.6007 21.0666 60.6124 21.0129C64.2376 20.9483 63.98 21.2342 63.98 17.2727C63.98 14.5283 63.9579 14.2979 63.6673 14.0073C63.3761 13.7161 63.1463 13.6947 60.3179 13.6947H57.281L56.9571 14.1066ZM61.6352 17.3682V18.6969H60.3065H58.9778V17.3682V16.0395H60.3065H61.6352V17.3682ZM18.4916 29.8889C11.9078 30.1956 8.43103 30.5196 7.69493 30.8951C6.93679 31.2818 6.1896 32.1599 6.00514 32.8806C5.86508 33.4277 5.66593 36.0981 5.42223 40.6992C5.29984 43.0083 5.46335 43.7375 6.32247 44.7134C7.50907 46.0615 6.23399 45.9742 24.7443 45.9742C42.5487 45.9742 41.7506 46.014 42.8216 45.0737C43.8522 44.1686 44.0528 43.5629 44.024 41.441C43.9876 38.748 43.6722 33.9115 43.475 33.0221C43.2814 32.1483 42.6245 31.3173 41.7978 30.9006C41.134 30.566 40.5497 30.4891 36.3118 30.1784C33.3177 29.9589 21.2112 29.7623 18.4916 29.8889ZM31.883 32.3043C33.8461 32.3945 36.6479 32.5672 38.1095 32.6882C40.4043 32.8781 40.8009 32.95 41.0166 33.2155C41.2786 33.5379 41.3263 34.0349 41.6286 39.5937C41.731 41.4764 41.7307 42.574 41.6277 42.8449C41.2902 43.7327 41.7795 43.7076 24.7443 43.7076C7.93269 43.7076 8.28925 43.7242 7.86032 42.9229C7.6854 42.5959 7.79717 39.1704 8.12465 34.8243C8.26877 32.9116 8.20046 32.9564 11.3792 32.6809C17.3267 32.1653 25.5689 32.014 31.883 32.3043ZM68.3448 42.1324C68.0155 42.4618 67.8879 42.7407 67.8879 43.1316C67.8879 43.5677 67.8173 43.6915 67.5267 43.7644C66.8486 43.9346 65.9346 44.7468 65.4661 45.5955C65.0708 46.3116 64.9979 46.615 64.9971 47.5496C64.9957 49.0473 65.5192 49.9188 66.9045 50.7246L67.8751 51.289L67.8815 53.751C67.8887 56.5404 67.8853 56.5468 66.7155 55.8263C65.9465 55.3527 65.5502 55.3361 65.0171 55.7555C64.4832 56.1754 64.4549 56.9587 64.957 57.4187C65.4325 57.8544 66.5036 58.3787 67.2211 58.527C67.6888 58.6236 67.8193 58.7277 67.8562 59.0332C67.94 59.7288 68.2157 60.234 68.6093 60.4133C69.1519 60.6606 69.3496 60.6365 69.8208 60.2659C70.1484 60.0081 70.2327 59.8083 70.2327 59.2881C70.2327 58.6538 70.2566 58.6231 71.0286 58.2689C72.0181 57.8151 72.8766 56.9712 73.3711 55.9665C73.8911 54.9098 73.9075 53.0032 73.4047 52.0558C72.9657 51.229 72.103 50.4788 71.0618 50.0183L70.2327 49.6516V47.8521C70.2327 46.8623 70.2882 46.0524 70.356 46.0524C70.4237 46.0524 70.7449 46.1878 71.0696 46.3533C71.5434 46.595 71.751 46.6225 72.1219 46.4932C73.5089 46.0097 72.8824 44.419 71.0485 43.7677C70.2646 43.4893 70.2327 43.4553 70.2327 42.9007C70.2327 42.4634 70.1329 42.245 69.8208 41.9996C69.2601 41.5584 68.8851 41.5922 68.3448 42.1324ZM67.8828 47.4202L67.8774 48.6316L67.5701 48.2626C67.401 48.0597 67.2626 47.7538 67.2626 47.5828C67.2626 47.2831 67.7044 46.2087 67.8276 46.2087C67.8607 46.2087 67.8856 46.754 67.8828 47.4202ZM8.17467 48.6981C7.01245 48.9363 5.89916 49.8481 5.44709 50.9323C5.02628 51.9412 5.13352 60.6623 5.67938 69.8126C5.83585 72.4374 5.89041 72.7839 6.27073 73.5643C6.58633 74.2119 6.86927 74.5334 7.41794 74.8676C8.07822 75.2697 8.37788 75.3311 10.6224 75.5248C19.1342 76.2592 30.2895 76.2614 38.8459 75.5304C41.7315 75.2839 42.4126 75.0057 43.131 73.7797C43.5185 73.1184 43.5648 72.8435 43.7534 70.0714C44.2979 62.074 44.4655 51.9479 44.0691 50.9991C43.7405 50.2126 42.8765 49.3188 42.0955 48.9573C41.3979 48.6343 41.2561 48.6315 25.057 48.6088C16.0726 48.5962 8.47558 48.6363 8.17467 48.6981ZM13.8021 52.7741V54.6499H10.6757H7.5494V53.192C7.5494 51.8807 7.58473 51.7017 7.90112 51.41C8.3882 50.9609 8.55593 50.9369 11.3401 50.9164L13.8021 50.8982V52.7741ZM23.4938 52.7769V54.6556L19.8594 54.6136L16.225 54.5717L16.1802 52.941C16.1555 52.044 16.1709 51.2174 16.2144 51.1043C16.2766 50.942 17.0591 50.8982 19.8936 50.8982H23.4938V52.7769ZM33.1855 52.7769V54.6556L29.5511 54.6136L25.9167 54.5717L25.8718 52.941C25.8471 52.044 25.8626 51.2174 25.9061 51.1043C25.9683 50.942 26.7508 50.8982 29.5853 50.8982H33.1855V52.7769ZM41.5622 51.415C41.9 51.808 41.9392 51.9993 41.9392 53.2549V54.6563L38.7738 54.6141L35.6084 54.5717L35.5635 52.941C35.5388 52.044 35.5565 51.2117 35.6026 51.0913C35.6714 50.9123 36.1883 50.8818 38.436 50.9243L41.1853 50.9764L41.5622 51.415ZM70.7102 52.4661C71.1207 52.6857 71.4834 53.4321 71.4826 54.0559C71.4818 54.761 70.7882 55.889 70.3499 55.8981C70.2854 55.8993 70.2327 55.0915 70.2327 54.1027C70.2327 53.114 70.2725 52.3051 70.3212 52.3051C70.3698 52.3051 70.5448 52.3775 70.7102 52.4661ZM13.9584 59.1049V61.2152H10.7539H7.5494V59.1049V56.9946H10.7539H13.9584V59.1049ZM23.4938 59.1049V61.2152H19.8985H16.3032V59.1049V56.9946H19.8985H23.4938V59.1049ZM33.1855 59.1049V61.2152H29.512H25.8385V59.1049V56.9946H29.512H33.1855V59.1049ZM41.9392 58.6164C41.9392 59.5084 41.8953 60.458 41.8415 60.7267L41.7438 61.2152H38.637H35.5302V59.1049V56.9946H38.7347H41.9392V58.6164ZM13.9584 65.6165V67.6731L10.9695 67.5778C9.32564 67.5253 7.9627 67.4615 7.94066 67.436C7.91862 67.4105 7.85063 66.5281 7.78951 65.4748L7.67836 63.56H10.8183H13.9584V65.6165ZM23.4938 65.6732V67.7865L19.9376 67.7444L16.3813 67.7024L16.3377 65.6312L16.2941 63.56H19.8939H23.4938V65.6732ZM33.184 64.8496C33.1834 65.5589 33.1384 66.5086 33.0842 66.9599L32.9855 67.7805H29.4121H25.8385V65.6702V63.56H29.512H33.1855L33.184 64.8496ZM41.7179 64.7714C41.6704 65.4376 41.5487 67.4218 41.4478 69.1803C41.2799 72.1018 41.2352 72.4066 40.9305 72.7114C40.5847 73.0572 40.4949 73.0706 36.7026 73.3454L35.2957 73.4473L35.395 69.5588C35.4496 67.4201 35.5022 65.1953 35.5122 64.6151L35.5302 63.56H38.6674H41.8043L41.7179 64.7714ZM13.9193 70.0549C14.0594 70.0984 14.1147 70.5811 14.1147 71.7618C14.1147 73.6851 14.4783 73.4949 11.2843 73.2427C10.1329 73.1519 8.99643 73.0023 8.75883 72.9104C8.28237 72.7258 8.23564 72.5878 8.09683 70.9555L8.00132 69.8317L10.8625 69.9132C12.4364 69.9579 13.8119 70.0218 13.9193 70.0549ZM23.4938 71.9229V73.7206H21.1726C19.896 73.7206 18.3133 73.6751 17.6555 73.6194L16.4595 73.5185V71.8218V70.1253H19.9766H23.4938V71.9229ZM33.0268 71.6494C33.0254 72.4877 32.9621 73.2718 32.886 73.392C32.7768 73.5644 32.0184 73.6266 29.2932 73.6873L25.8385 73.764V72.0488C25.8385 71.1055 25.8854 70.2868 25.9428 70.2295C26 70.1722 27.6179 70.1253 29.5381 70.1253H33.0291L33.0268 71.6494Z" fill="#8BD888"/>
</svg>
