<svg width="232" height="32" viewBox="0 0 232 32" fill="none" xmlns="http://www.w3.org/2000/svg">
<rect x="0.5" width="32" height="32" rx="4" fill="#F2994A"/>
<path d="M25.1667 9.33334H19.8333V10.6667H25.1667V24.6667H19.8333V26H26.5V10.6667C26.5 10.3131 26.3595 9.97392 26.1095 9.72387C25.8594 9.47382 25.5203 9.33334 25.1667 9.33334V9.33334Z" fill="#F8F9FE"/>
<path d="M17.7533 6H8.58001C8.20517 6 7.84568 6.1489 7.58063 6.41396C7.31558 6.67901 7.16667 7.03849 7.16667 7.41333V26H19.1667V7.41333C19.1667 7.03849 19.0178 6.67901 18.7527 6.41396C18.4877 6.1489 18.1282 6 17.7533 6V6ZM17.8333 24.6667H15.8333V22.6667H10.5V24.6667H8.50001V7.41333C8.50001 7.40283 8.50207 7.39242 8.50609 7.38272C8.51012 7.37301 8.51601 7.36419 8.52344 7.35676C8.53087 7.34934 8.53968 7.34344 8.54939 7.33942C8.5591 7.3354 8.5695 7.33333 8.58001 7.33333H17.7533C17.7638 7.33333 17.7742 7.3354 17.784 7.33942C17.7937 7.34344 17.8025 7.34934 17.8099 7.35676C17.8173 7.36419 17.8232 7.37301 17.8272 7.38272C17.8313 7.39242 17.8333 7.40283 17.8333 7.41333V24.6667Z" fill="#F8F9FE"/>
<path d="M9.83333 9.33334H11.1667V10.6667H9.83333V9.33334Z" fill="#F8F9FE"/>
<path d="M12.5 9.33334H13.8333V10.6667H12.5V9.33334Z" fill="#F8F9FE"/>
<path d="M15.1667 9.33334H16.5V10.6667H15.1667V9.33334Z" fill="#F8F9FE"/>
<path d="M9.83333 12.6667H11.1667V14H9.83333V12.6667Z" fill="#F8F9FE"/>
<path d="M12.5 12.6667H13.8333V14H12.5V12.6667Z" fill="#F8F9FE"/>
<path d="M15.1667 12.6667H16.5V14H15.1667V12.6667Z" fill="#F8F9FE"/>
<path d="M9.83333 16H11.1667V17.3333H9.83333V16Z" fill="#F8F9FE"/>
<path d="M12.5 16H13.8333V17.3333H12.5V16Z" fill="#F8F9FE"/>
<path d="M15.1667 16H16.5V17.3333H15.1667V16Z" fill="#F8F9FE"/>
<path d="M9.83333 19.3333H11.1667V20.6667H9.83333V19.3333Z" fill="#F8F9FE"/>
<path d="M12.5 19.3333H13.8333V20.6667H12.5V19.3333Z" fill="#F8F9FE"/>
<path d="M15.1667 19.3333H16.5V20.6667H15.1667V19.3333Z" fill="#F8F9FE"/>
<path d="M19.8333 12.6667H21.1667V14H19.8333V12.6667Z" fill="#F8F9FE"/>
<path d="M22.5 12.6667H23.8333V14H22.5V12.6667Z" fill="#F8F9FE"/>
<path d="M19.8333 16H21.1667V17.3333H19.8333V16Z" fill="#F8F9FE"/>
<path d="M22.5 16H23.8333V17.3333H22.5V16Z" fill="#F8F9FE"/>
<path d="M19.8333 19.3333H21.1667V20.6667H19.8333V19.3333Z" fill="#F8F9FE"/>
<path d="M22.5 19.3333H23.8333V20.6667H22.5V19.3333Z" fill="#F8F9FE"/>
<path d="M58.184 7.7V24.5H55.616L46.352 13.124V24.5H43.256V7.7H45.824L55.088 19.076V7.7H58.184ZM67.2937 11.54C69.1817 11.54 70.6217 11.996 71.6137 12.908C72.6217 13.804 73.1257 15.164 73.1257 16.988V24.5H70.2937V22.94C69.9257 23.5 69.3977 23.932 68.7097 24.236C68.0377 24.524 67.2217 24.668 66.2617 24.668C65.3017 24.668 64.4617 24.508 63.7417 24.188C63.0217 23.852 62.4617 23.396 62.0617 22.82C61.6777 22.228 61.4857 21.564 61.4857 20.828C61.4857 19.676 61.9097 18.756 62.7577 18.068C63.6217 17.364 64.9737 17.012 66.8137 17.012H70.1257V16.82C70.1257 15.924 69.8537 15.236 69.3097 14.756C68.7817 14.276 67.9897 14.036 66.9337 14.036C66.2137 14.036 65.5017 14.148 64.7977 14.372C64.1097 14.596 63.5257 14.908 63.0457 15.308L61.8697 13.124C62.5417 12.612 63.3497 12.22 64.2937 11.948C65.2377 11.676 66.2377 11.54 67.2937 11.54ZM66.8857 22.484C67.6377 22.484 68.3017 22.316 68.8777 21.98C69.4697 21.628 69.8857 21.132 70.1257 20.492V19.004H67.0297C65.3017 19.004 64.4377 19.572 64.4377 20.708C64.4377 21.252 64.6537 21.684 65.0857 22.004C65.5177 22.324 66.1177 22.484 66.8857 22.484ZM88.7414 11.684L83.2454 24.5H80.1494L74.6534 11.684H77.7734L81.7574 21.188L85.8614 11.684H88.7414ZM93.4724 13.556C94.3364 12.212 95.8564 11.54 98.0324 11.54V14.396C97.7764 14.348 97.5444 14.324 97.3364 14.324C96.1684 14.324 95.2564 14.668 94.6004 15.356C93.9444 16.028 93.6164 17.004 93.6164 18.284V24.5H90.6164V11.684H93.4724V13.556ZM100.577 11.684H103.577V24.5H100.577V11.684ZM102.089 9.572C101.545 9.572 101.089 9.404 100.721 9.068C100.353 8.716 100.169 8.284 100.169 7.772C100.169 7.26 100.353 6.836 100.721 6.5C101.089 6.148 101.545 5.972 102.089 5.972C102.633 5.972 103.089 6.14 103.457 6.476C103.825 6.796 104.009 7.204 104.009 7.7C104.009 8.228 103.825 8.676 103.457 9.044C103.105 9.396 102.649 9.572 102.089 9.572ZM115.219 23.804C114.867 24.092 114.435 24.308 113.923 24.452C113.427 24.596 112.899 24.668 112.339 24.668C110.931 24.668 109.843 24.3 109.075 23.564C108.307 22.828 107.923 21.756 107.923 20.348V14.18H105.811V11.78H107.923V8.852H110.923V11.78H114.355V14.18H110.923V20.276C110.923 20.9 111.075 21.38 111.379 21.716C111.683 22.036 112.123 22.196 112.699 22.196C113.371 22.196 113.931 22.02 114.379 21.668L115.219 23.804ZM117.687 11.684H120.687V24.5H117.687V11.684ZM119.199 9.572C118.655 9.572 118.199 9.404 117.831 9.068C117.463 8.716 117.279 8.284 117.279 7.772C117.279 7.26 117.463 6.836 117.831 6.5C118.199 6.148 118.655 5.972 119.199 5.972C119.743 5.972 120.199 6.14 120.567 6.476C120.935 6.796 121.119 7.204 121.119 7.7C121.119 8.228 120.935 8.676 120.567 9.044C120.215 9.396 119.759 9.572 119.199 9.572ZM131.896 11.54C133.512 11.54 134.808 12.012 135.784 12.956C136.76 13.9 137.248 15.3 137.248 17.156V24.5H134.248V17.54C134.248 16.42 133.984 15.58 133.456 15.02C132.928 14.444 132.176 14.156 131.2 14.156C130.096 14.156 129.224 14.492 128.584 15.164C127.944 15.82 127.624 16.772 127.624 18.02V24.5H124.624V6.692H127.624V13.172C128.12 12.644 128.728 12.244 129.448 11.972C130.184 11.684 131 11.54 131.896 11.54ZM156.27 7.7V24.5H153.702L144.438 13.124V24.5H141.342V7.7H143.91L153.174 19.076V7.7H156.27ZM160.484 11.684H163.484V24.5H160.484V11.684ZM161.996 9.572C161.452 9.572 160.996 9.404 160.628 9.068C160.26 8.716 160.076 8.284 160.076 7.772C160.076 7.26 160.26 6.836 160.628 6.5C160.996 6.148 161.452 5.972 161.996 5.972C162.54 5.972 162.996 6.14 163.364 6.476C163.732 6.796 163.916 7.204 163.916 7.7C163.916 8.228 163.732 8.676 163.364 9.044C163.012 9.396 162.556 9.572 161.996 9.572ZM170.277 13.556C171.141 12.212 172.661 11.54 174.837 11.54V14.396C174.581 14.348 174.349 14.324 174.141 14.324C172.973 14.324 172.061 14.668 171.405 15.356C170.749 16.028 170.421 17.004 170.421 18.284V24.5H167.421V11.684H170.277V13.556ZM193.558 11.54C195.174 11.54 196.454 12.012 197.398 12.956C198.342 13.884 198.814 15.284 198.814 17.156V24.5H195.814V17.54C195.814 16.42 195.566 15.58 195.07 15.02C194.574 14.444 193.862 14.156 192.934 14.156C191.926 14.156 191.118 14.492 190.51 15.164C189.902 15.82 189.598 16.764 189.598 17.996V24.5H186.598V17.54C186.598 16.42 186.35 15.58 185.854 15.02C185.358 14.444 184.646 14.156 183.718 14.156C182.694 14.156 181.878 14.484 181.27 15.14C180.678 15.796 180.382 16.748 180.382 17.996V24.5H177.382V11.684H180.238V13.316C180.718 12.74 181.318 12.3 182.038 11.996C182.758 11.692 183.558 11.54 184.438 11.54C185.398 11.54 186.246 11.724 186.982 12.092C187.734 12.444 188.326 12.972 188.758 13.676C189.286 13.004 189.966 12.484 190.798 12.116C191.63 11.732 192.55 11.54 193.558 11.54ZM207.544 11.54C209.432 11.54 210.872 11.996 211.864 12.908C212.872 13.804 213.376 15.164 213.376 16.988V24.5H210.544V22.94C210.176 23.5 209.648 23.932 208.96 24.236C208.288 24.524 207.472 24.668 206.512 24.668C205.552 24.668 204.712 24.508 203.992 24.188C203.272 23.852 202.712 23.396 202.312 22.82C201.928 22.228 201.736 21.564 201.736 20.828C201.736 19.676 202.16 18.756 203.008 18.068C203.872 17.364 205.224 17.012 207.064 17.012H210.376V16.82C210.376 15.924 210.104 15.236 209.56 14.756C209.032 14.276 208.24 14.036 207.184 14.036C206.464 14.036 205.752 14.148 205.048 14.372C204.36 14.596 203.776 14.908 203.296 15.308L202.12 13.124C202.792 12.612 203.6 12.22 204.544 11.948C205.488 11.676 206.488 11.54 207.544 11.54ZM207.136 22.484C207.888 22.484 208.552 22.316 209.128 21.98C209.72 21.628 210.136 21.132 210.376 20.492V19.004H207.28C205.552 19.004 204.688 19.572 204.688 20.708C204.688 21.252 204.904 21.684 205.336 22.004C205.768 22.324 206.368 22.484 207.136 22.484ZM224.498 11.54C226.114 11.54 227.41 12.012 228.386 12.956C229.362 13.9 229.85 15.3 229.85 17.156V24.5H226.85V17.54C226.85 16.42 226.586 15.58 226.058 15.02C225.53 14.444 224.778 14.156 223.802 14.156C222.698 14.156 221.826 14.492 221.186 15.164C220.546 15.82 220.226 16.772 220.226 18.02V24.5H217.226V11.684H220.082V13.34C220.578 12.748 221.202 12.3 221.954 11.996C222.706 11.692 223.554 11.54 224.498 11.54Z" fill="#F2994A"/>
</svg>
